HIERARCHY
ROOT Hips
{
	OFFSET	0.00	0.00	0.00
	CHANNELS 6 Xposition Yposition Zposition Zrotation Xrotation Yrotation
	JOINT LeftUpLeg
	{
		OFFSET	 0.126116	-0.014019	-0.065224
		CHANNELS 3 Zrotation Xrotation Yrotation
		JOINT LeftLeg
		{
			OFFSET	 0.000000	 0.000000	 0.569914
			CHANNELS 3 Zrotation Xrotation Yrotation
			JOINT LeftFoot
			{
				OFFSET	 0.000000	 0.000000	 0.544423
				CHANNELS 3 Zrotation Xrotation Yrotation
				JOINT LeftToeBase
				{
					OFFSET	 0.000000	 0.000000	 0.207117
					CHANNELS 3 Zrotation Xrotation Yrotation
					End Site
					{
						OFFSET	 0.000000	 0.000000	 0.207117
					}
				}
			}
		}
	}
	JOINT RightUpLeg
	{
		OFFSET	-0.124023	-0.008373	-0.065224
		CHANNELS 3 Zrotation Xrotation Yrotation
		JOINT RightLeg
		{
			OFFSET	 0.000000	 0.000000	 0.570047
			CHANNELS 3 Zrotation Xrotation Yrotation
			JOINT RightFoot
			{
				OFFSET	 0.000000	 0.000000	 0.544354
				CHANNELS 3 Zrotation Xrotation Yrotation
				JOINT RightToeBase
				{
					OFFSET	 0.000000	 0.000000	 0.207540
					CHANNELS 3 Zrotation Xrotation Yrotation
					End Site
					{
						OFFSET	 0.000000	 0.000000	 0.207540
					}
				}
			}
		}
	}
	JOINT Spine
	{
		OFFSET	 0.000184	-0.007763	 0.117403
		CHANNELS 3 Zrotation Xrotation Yrotation
		JOINT Spine1
		{
			OFFSET	 0.000000	 0.000000	 0.137269
			CHANNELS 3 Zrotation Xrotation Yrotation
			JOINT Spine2
			{
				OFFSET	 0.000000	 0.000000	 0.156879
				CHANNELS 3 Zrotation Xrotation Yrotation
				JOINT LeftShoulder
				{
					OFFSET	 0.080501	-0.002496	 0.160144
					CHANNELS 3 Zrotation Xrotation Yrotation
					JOINT LeftArm
					{
						OFFSET	 0.000000	 0.000000	 0.164363
						CHANNELS 3 Zrotation Xrotation Yrotation
						JOINT LeftForeArm
						{
							OFFSET	 0.000000	 0.000000	 0.364576
							CHANNELS 3 Zrotation Xrotation Yrotation
							JOINT LeftHand
							{
								OFFSET	 0.000000	 0.000000	 0.360812
								CHANNELS 3 Zrotation Xrotation Yrotation
								JOINT LeftHandIndex1
								{
									OFFSET	 0.000000	 0.000000	 0.086006
									CHANNELS 3 Zrotation Xrotation Yrotation
									JOINT LeftHandIndex2
									{
										OFFSET	 0.000000	 0.000000	 0.047237
										CHANNELS 3 Zrotation Xrotation Yrotation
										JOINT LeftHandIndex3
										{
											OFFSET	-0.004284	-0.000551	 0.038165
											CHANNELS 3 Zrotation Xrotation Yrotation
											End Site
											{
												OFFSET	-0.004284	-0.000551	 0.038165
											}
										}
									}
								}
							}
						}
					}
				}
				JOINT Neck
				{
					OFFSET	 0.000000	 0.000000	 0.176489
					CHANNELS 3 Zrotation Xrotation Yrotation
					JOINT Head
					{
						OFFSET	 0.000000	-0.001747	 0.077940
						CHANNELS 3 Zrotation Xrotation Yrotation
						End Site
						{
							OFFSET	 0.000000	-0.001747	 0.077940
						}
					}
				}
				JOINT RightShoulder
				{
					OFFSET	-0.080363	 0.000306	 0.159706
					CHANNELS 3 Zrotation Xrotation Yrotation
					JOINT RightArm
					{
						OFFSET	 0.000000	 0.000000	 0.164196
						CHANNELS 3 Zrotation Xrotation Yrotation
						JOINT RightForeArm
						{
							OFFSET	 0.000000	 0.000000	 0.365611
							CHANNELS 3 Zrotation Xrotation Yrotation
							JOINT RightHand
							{
								OFFSET	 0.000000	 0.000000	 0.360648
								CHANNELS 3 Zrotation Xrotation Yrotation
								JOINT RightHandIndex1
								{
									OFFSET	 0.000000	 0.000000	 0.069977
									CHANNELS 3 Zrotation Xrotation Yrotation
									JOINT RightHandIndex2
									{
										OFFSET	 0.000000	 0.000000	 0.052305
										CHANNELS 3 Zrotation Xrotation Yrotation
										JOINT RightHandIndex3
										{
											OFFSET	 0.009002	-0.000782	 0.042196
											CHANNELS 3 Zrotation Xrotation Yrotation
											End Site
											{
												OFFSET	 0.009002	-0.000782	 0.042196
											}
										}
									}
								}
							}
						}
					}
				}
			}
		}
	}
}
MOTION
Frames:    4
Frame Time: 0.03333334
-0.719577	-0.006280	 1.272346	-176.391500	-6.765081	 0.295131	-16.491460	 4.752605	-175.276500	-6.433431	-11.034290	-1.520749	 20.601410	 68.927640	-29.935370	-2.385833	 28.452760	 0.000004	 18.754830	 4.668551	 173.013500	 3.680867	-11.047020	 0.748666	-19.166180	 67.557370	 26.399430	 2.384659	 28.388700	-0.000001	-0.112133	 7.102225	-2.739760	 1.172094	 12.993450	 7.244828	-7.392763	-11.280320	-8.165543	-91.776180	 78.527350	-180.000000	-8.914527	 4.382013	 12.882790	-15.847490	-3.101702	-50.613930	-3.210855	-36.086050	-2.797481	-4.130354	 21.526190	 0.991307	-5.167926	 0.731697	 3.519349	-1.378229	 35.397820	-2.634230	-9.421456	 1.563776	 4.630478	-6.638871	-18.042620	-6.383333	 89.782040	 78.203820	-180.000000	 26.292680	 0.111710	-7.353823	 9.595426	-2.539141	 47.784220	 48.164670	 26.983740	-8.649648	 5.716295	 19.173350	-3.684826	 5.027458	 0.246833	-9.377971	-2.350882	 35.473990	 5.254307
-0.719595	-0.006307	 1.272238	-176.362100	-6.786659	 0.299582	-16.531060	 4.584424	-175.277000	-6.408425	-11.522980	-1.582095	 20.682060	 69.260800	-30.053390	-2.385833	 28.452760	 0.000004	 18.788510	 4.657787	 172.972100	 3.650311	-11.250250	 0.756266	-19.224250	 67.759070	 26.474180	 2.384659	 28.388700	-0.000001	-0.229955	 7.139746	-2.767874	 1.081760	 12.833780	 7.283550	-7.353494	-11.142100	-8.159887	-91.776150	 78.527380	 180.000000	-8.981347	 5.427952	 13.973570	-15.901680	-3.310148	-53.021820	-3.189937	-36.053910	-2.812131	-4.130354	 21.526190	 0.991307	-5.167926	 0.731697	 3.519349	-1.378229	 35.397820	-2.634230	-9.403708	 1.546482	 4.676650	-6.617232	-17.957340	-6.474774	 89.782070	 78.203890	-180.000000	 25.856380	 0.874137	-8.439662	 9.708050	-2.636423	 50.274250	 48.298600	 25.700740	-8.411456	 5.716295	 19.173350	-3.684826	 5.027458	 0.246833	-9.377971	-2.350882	 35.473990	 5.254307
-0.719609	-0.006331	 1.272148	-176.339700	-6.805567	 0.302647	-16.560580	 4.455942	-175.277200	-6.390250	-11.907890	-1.630345	 20.751630	 69.524180	-30.150830	-2.385833	 28.452760	 0.000004	 18.813420	 4.650838	 172.938800	 3.627265	-11.416570	 0.762720	-19.280060	 67.922000	 26.543550	 2.384659	 28.388700	-0.000001	-0.324360	 7.172318	-2.788479	 1.008334	 12.705140	 7.311129	-7.323082	-11.034280	-8.154413	-91.776190	 78.527420	-180.000000	-9.040501	 6.285141	 14.824720	-15.955000	-3.471155	-54.905920	-3.174617	-36.029520	-2.822922	-4.130354	 21.526190	 0.991307	-5.167926	 0.731697	 3.519349	-1.378229	 35.397820	-2.634230	-9.390285	 1.533447	 4.711598	-6.600824	-17.892870	-6.544087	 89.782030	 78.203820	-180.000000	 25.500650	 1.500074	-9.278815	 9.799065	-2.709201	 52.223090	 48.367130	 24.681850	-8.214067	 5.716295	 19.173350	-3.684826	 5.027458	 0.246833	-9.377971	-2.350882	 35.473990	 5.254307
-0.719734	-0.006512	 1.271387	-176.205000	-6.945446	 0.267455	-16.662730	 3.641263	-175.252200	-6.340077	-14.553010	-1.972320	 21.403190	 71.390820	-30.929580	-2.385833	 28.452760	 0.000004	 18.912460	 4.593659	 172.747400	 3.526875	-12.823970	 0.832868	-20.229800	 69.177590	 27.569270	 2.384659	 28.388700	-0.000001	-1.040374	 7.401367	-2.824262	 0.435284	 11.715810	 7.384609	-7.116756	-10.269950	-8.054905	-91.776190	 78.527400	-180.000000	-9.617167	 13.376620	 20.640250	-16.574120	-4.483171	-67.911210	-3.123149	-35.921280	-2.882576	-4.130354	 21.526190	 0.991307	-5.167926	 0.731697	 3.519349	-1.378229	 35.397820	-2.634230	-9.306011	 1.443212	 4.881972	-6.502944	-17.508160	-6.893711	 89.782100	 78.203870	 180.000000	 22.672380	 6.758000	-14.815360	 10.490250	-3.133579	 65.807310	 48.171260	 17.454000	-6.480202	 5.716295	 19.173350	-3.684826	 5.027458	 0.246833	-9.377971	-2.350882	 35.473990	 5.254307
